<svg width="23" height="23" viewBox="0 0 23 23" fill="none" xmlns="http://www.w3.org/2000/svg">
<g id="share">
<path id="Vector" d="M17.25 15.4483C16.5217 15.4483 15.87 15.7358 15.3717 16.1862L8.53875 12.2091C8.58667 11.9887 8.625 11.7683 8.625 11.5383C8.625 11.3083 8.58667 11.0879 8.53875 10.8675L15.295 6.92871C15.8125 7.40787 16.4929 7.70496 17.25 7.70496C18.8408 7.70496 20.125 6.42079 20.125 4.82996C20.125 3.23912 18.8408 1.95496 17.25 1.95496C15.6592 1.95496 14.375 3.23912 14.375 4.82996C14.375 5.05996 14.4133 5.28037 14.4612 5.50079L7.705 9.43954C7.1875 8.96037 6.50708 8.66329 5.75 8.66329C4.15917 8.66329 2.875 9.94746 2.875 11.5383C2.875 13.1291 4.15917 14.4133 5.75 14.4133C6.50708 14.4133 7.1875 14.1162 7.705 13.637L14.5283 17.6237C14.4804 17.825 14.4517 18.0358 14.4517 18.2466C14.4517 19.7895 15.7071 21.045 17.25 21.045C18.7929 21.045 20.0483 19.7895 20.0483 18.2466C20.0483 16.7037 18.7929 15.4483 17.25 15.4483ZM17.25 3.87162C17.7771 3.87162 18.2083 4.30287 18.2083 4.82996C18.2083 5.35704 17.7771 5.78829 17.25 5.78829C16.7229 5.78829 16.2917 5.35704 16.2917 4.82996C16.2917 4.30287 16.7229 3.87162 17.25 3.87162ZM5.75 12.4966C5.22292 12.4966 4.79167 12.0654 4.79167 11.5383C4.79167 11.0112 5.22292 10.58 5.75 10.58C6.27708 10.58 6.70833 11.0112 6.70833 11.5383C6.70833 12.0654 6.27708 12.4966 5.75 12.4966ZM17.25 19.2241C16.7229 19.2241 16.2917 18.7929 16.2917 18.2658C16.2917 17.7387 16.7229 17.3075 17.25 17.3075C17.7771 17.3075 18.2083 17.7387 18.2083 18.2658C18.2083 18.7929 17.7771 19.2241 17.25 19.2241Z" fill="black"/>
</g>
</svg>
